<svg xmlns="http://www.w3.org/2000/svg" width="255" height="255" fill="none"><g clip-path="url(#a)"><rect width="255" height="255" fill="#fff" rx="127.5"/><g clip-path="url(#b)"><path fill="#000" d="M119.084-.93c-.553.05-2.311.225-3.894.35-36.502 3.291-70.694 22.984-92.349 53.252C10.782 69.502 3.07 88.592.156 108.812-.874 115.87-1 117.955-1 127.525s.126 11.655 1.156 18.713c6.984 48.253 41.326 88.794 87.902 103.815 8.34 2.688 17.133 4.522 27.132 5.627 3.894.427 20.726.427 24.62 0 17.259-1.909 31.88-6.179 46.3-13.539 2.211-1.13 2.638-1.432 2.336-1.683-.201-.151-9.621-12.785-20.926-28.057l-20.55-27.756-25.751-38.105c-14.168-20.949-25.825-38.08-25.926-38.08-.1-.025-.2 16.905-.25 37.577-.076 36.196-.101 37.653-.554 38.507-.653 1.231-1.155 1.733-2.21 2.286-.804.402-1.508.477-5.301.477h-4.346l-1.156-.728a4.692 4.692 0 0 1-1.683-1.834l-.528-1.13.05-50.363.076-50.388.779-.98c.402-.527 1.256-1.205 1.859-1.531 1.03-.503 1.432-.553 5.778-.553 5.125 0 5.979.201 7.31 1.658.377.402 14.32 21.401 31.001 46.695s39.492 59.832 50.697 76.787l20.349 30.821 1.03-.678c9.119-5.928 18.766-14.368 26.403-23.16 16.254-18.663 26.73-41.42 30.247-65.685 1.03-7.058 1.156-9.143 1.156-18.713s-.126-11.655-1.156-18.713c-6.984-48.253-41.326-88.794-87.902-103.815-8.215-2.662-16.958-4.496-26.755-5.601-2.412-.251-19.018-.528-21.103-.327Zm52.606 77.716c1.206.603 2.186 1.758 2.537 2.964.201.653.251 14.619.201 46.092l-.075 45.163-7.964-12.207-7.989-12.208v-32.83c0-21.225.101-33.156.252-33.734.401-1.407 1.281-2.512 2.487-3.165 1.03-.527 1.406-.578 5.351-.578 3.718 0 4.371.05 5.2.503Z"/></g></g><defs><clipPath id="a"><rect width="255" height="255" fill="#fff" rx="127.5"/></clipPath><clipPath id="b"><path fill="#fff" d="M-1-1h257v257H-1z"/></clipPath></defs></svg>