<svg xmlns="http://www.w3.org/2000/svg" width="24" height="24" fill="none">
  <style>
    path { fill: #040404; }
    @media (prefers-color-scheme: dark) {
        path { fill: #ffffff;}
        
    }
</style>
  <path d="M14.998.731622c.0088.007261.0175.014523.0265.022004.0067.005368.0134.010736.0203.016266.1981.161653.3328.432978.3639.684028.0285.3099-.0388.60671-.2329.85424-.1227.14592-.2534.23883-.4219.32952-.0032.6887-.0063 1.3774-.0096 2.08696.3504-.00076.3504-.00076.7008-.00174.6411-.00122.6411-.00122.9218.0428.0139.00211.0279.00422.0419.00633.4019.06179.7909.18075 1.1567.35841.0097.00466.0195.00932.0295.01412.3662.17607.6951.40785.9947.68153.0093.00846.0187.01691.0283.02563.0822.0745.1627.15042.2349.23486.0189.02189.0384.0431.058.06439.0489.05427.0939.11121.1383.16913.0092.01191.0184.02379.0276.03564.6041.77541.8581 1.71118.857 2.72088 0 .02713 0 .05426.0001.08139 0 .0586 0 .11719-.0001.17578v.26138c0 .14662 0 .29323-.0001.43983-.0001.1451-.0001.2901-.0001.4351v.1652c0 .3246-.0001.6493-.0002.9739-.0001.3153-.0002.6306-.0002.9458v.3226c-.0001.1991-.0001.3981-.0001.5971v.0277c-.0001.6103-.0003 1.2206-.0004 1.8309.0088 0 .0176-.0001.0267-.0001.0838-.0004.1676-.0007.2515-.0009.0431-.0001.0861-.0002.1292-.0004.0417-.0002.0835-.0003.1252-.0004.0158 0 .0315-.0001.0473-.0002.1404-.0009.2841.004.4201.0419.0075.002.015.0041.0227.0062.1973.0568.3735.1622.5232.3018.0061.0057.0123.0115.0187.0174.0919.0867.1727.1765.2421.2821.0037.0055.0074.0111.0112.0168.1364.2083.2244.4376.2769.68.0028.013.0028.013.0057.0262.0324.1608.0376.3236.0373.4871 0 .0199 0 .0399.0001.0598.0001.0543 0 .1085 0 .1628 0 .0587.0001.1174.0001.1761.0002.1149.0002.2297.0002.3446-.0001.0934 0 .1869 0 .2803v.1013c.0001.1885.0002.377.0001.5656v.1942c-.0001.2245 0 .4489.0002.6734.0002.2527.0003.5055.0003.7582-.0001.027-.0001.054-.0001.0811v.0201c0 .0999.0001.1998.0002.2997.0001.1137.0001.2275 0 .3412-.0001.058-.0001.1159.0001.1739.0009.5069-.04.9991-.3419 1.4271-.007.0099-.0139.0198-.021.03-.0525.0722-.1108.1374-.1723.2019-.0064.007-.0128.0139-.0195.0211-.2045.2144-.5193.3701-.8169.3776-.0188.0001-.0376.0001-.0564 0-.0157.0001-.0157.0001-.0317.0002-.0347.0001-.0694.0001-.1041.0001-.025 0-.05.0001-.0751.0002-.0607.0001-.1214.0002-.1822.0002-.0494 0-.0988 0-.1483.0001-.1405.0002-.2811.0003-.4216.0002H19.6348c-.1225 0-.245.0002-.3675.0005-.1262.0003-.2524.0004-.3785.0004-.0707 0-.1414 0-.2121.0002-.0665.0002-.1331.0002-.1996.0001-.0243 0-.0486 0-.0729.0001-.4004.0018-.7264-.1293-1.0126-.4106-.3789-.3779-.5226-.9124-.5241-1.4343 0-.0326.0001-.0652.0002-.0977v-.0715c0-.0508 0-.1016.0001-.1524.0002-.0734.0002-.1469.0003-.2203 0-.1192.0001-.2384.0003-.3576.0002-.1157.0003-.2313.0004-.3469v-.0217c.0001-.0359.0001-.0718.0001-.1077.0002-.2968.0005-.5936.001-.8904-.0118.0033-.0236.0066-.0358.01-.0157.0044-.0314.0088-.0472.0132-.0077.0022-.0155.0044-.0235.0067-.063.0176-.1262.0319-.1906.0438-.0107.0019-.0213.0039-.0323.006-.2779.0509-.5539.0682-.8361.0677-.0394-.0001-.0787 0-.1181.0001h-.2062c-.1023-.0001-.2045-.0001-.3067 0-.1827.0001-.3654.0001-.548 0h-.6412c-.4042.0001-.8085 0-1.2127-.0001-.3587-.0001-.7175-.0001-1.0762 0-.4035.0001-.807.0002-1.2105.0001h-.64043c-.1817.0001-.3634.0001-.54511 0-.10155-.0001-.2031-.0001-.30465 0-.06799 0-.13599 0-.20398-.0001h-.11589c-.22655.0004-.45053-.0082-.67468-.0436-.00654-.001-.01309-.002-.01984-.003-.15827-.0245-.3153-.0566-.46929-.1008.00003.0127.00006.0255.00008.0386.00063.3035.00111.6071.0014.9106.00004.0375.00008.0749.00012.1124 0 .0074.00001.0149.00002.0226.00012.1203.00035.2406.00062.3609.00027.1237.00043.2474.00049.3711.00004.0762.00016.1524.0004.2285.00017.0587.00019.1174.00015.176.00001.0239.00007.0478.00018.0716.00084.188-.01292.3708-.05841.5537-.00369.015-.00369.015-.00746.0303-.08062.3147-.23903.5875-.45933.8242-.00602.0065-.01205.0131-.01826.0198-.22627.2367-.55326.3769-.87864.3886-.0629.0015-.1258.0013-.18871.0011-.02399.0001-.04798.0001-.07197.0002-.0579.0001-.1158.0001-.17371 0-.04714-.0001-.09427-.0001-.14141-.0001-.00676 0-.01351.0001-.02047.0001h-.0412c-.12822.0001-.25643 0-.38465-.0002-.10957-.0001-.21915-.0001-.32872 0-.12782.0002-.25563.0003-.38345.0002-.01367 0-.02735 0-.04103-.0001h-.02038c-.04698 0-.09396 0-.14094.0001-.06344.0001-.12689 0-.19033-.0001-.02314-.0001-.04627-.0001-.0694 0-.41244.0011-.75452-.1164-1.05165-.4096-.00812-.0078-.00812-.0078-.0164-.0158-.31968-.3112-.49974-.8026-.50757-1.2434-.00041-.0448-.00038-.0897-.00029-.1345-.00003-.0204-.00007-.0408-.00011-.0613-.0001-.0557-.00008-.1114-.00004-.1672.00002-.0602-.00006-.1205-.00014-.1807-.00012-.118-.00014-.2359-.00011-.3538.00001-.0959 0-.1918-.00004-.2877-.00001-.0138-.00002-.0276-.00002-.0414-.00001-.0208-.00002-.0417-.00003-.0625-.00008-.1933-.00012-.3867-.00008-.5801v-.022l.00003-.1107v-.0222c.00001-.0148.00001-.0297.00001-.0445.00005-.2304-.00002-.4608-.0002-.6912-.0002-.2593-.0003-.5186-.00027-.7779.00001-.0277.00001-.0554.00002-.0831v-.0206c.00001-.1026-.00005-.2051-.00016-.3077-.00011-.1167-.00013-.2335-.00001-.3503.00006-.0594.00007-.1189-.00005-.1784-.0001-.0547-.00007-.1093.00006-.1639.00003-.0196.00001-.0392-.00007-.0588-.00065-.1764.01338-.3535.05868-.5246.00245-.0095.0049-.019.00742-.0288.04163-.1552.10259-.3024.17917-.4435.00545-.01.01089-.0201.0165-.0305.07018-.1247.15484-.2339.25404-.3366.00833-.0089.01666-.0179.02524-.0271.20414-.2135.50684-.3757.80561-.3892.02128-.0003.04253-.0004.06381-.0003h.0243c.0263 0 .05259.0001.07888.0002h.05495l.14415.0003c.04909.0001.09818.0001.14728.0002.09621.0001.19242.0002.28863.0004-.00001-.0086-.00001-.0086-.00001-.0173-.00033-.6244-.00063-1.2488-.00081-1.8732-.00001-.0094-.00001-.0187-.00001-.0283-.00006-.203-.00011-.4059-.00016-.6088-.00003-.0996-.00005-.1991-.00008-.2986v-.03c-.00008-.3207-.00023-.6413-.00041-.962-.00018-.3297-.0003-.6594-.00034-.989 0-.0467-.00001-.0933-.00002-.1399v-.0278c-.00002-.1474-.00011-.2948-.00023-.44212-.00011-.14837-.00016-.29674-.00013-.44511.00002-.088-.00002-.176-.00014-.26401-.00007-.05898-.00007-.11796-.00002-.17694.00003-.03348.00003-.06696-.00006-.10044-.00046-.2123.00857-.42351.03865-.63388.00244-.01726.00244-.01726.00493-.03487.05941-.40234.18115-.79234.35497-1.15958.00445-.00942.00889-.01885.01347-.02856.13967-.29351.31712-.5736.52759-.82168.0083-.00997.01659-.01995.02488-.02993.1421-.1706.29519-.34675.47192-.48169.02281-.01809.04424-.03697.06585-.05647.04295-.03838.08746-.0738.13361-.10824.00823-.00614.01647-.01229.02495-.01862.16466-.12159.3358-.23132.51551-.3292.00844-.00468.01688-.00935.02557-.01417.46767-.25828.98908-.40972 1.51911-.46651.01564-.00168.01564-.00168.03158-.00339.19323-.01888.38735-.01974.58131-.01929.02351.00001.04702.00003.07053.00004.06107.00003.12214.00013.18321.00024.06265.0001.12529.00014.18793.00019.12231.0001.24463.00026.36694.00047.00303-.26397.00501-.52793.00573-.79191.00037-.12258.00107-.24514.00259-.36772.00132-.10685.00199-.21369.00189-.32055-.00003-.05658.00026-.11311.00133-.16968.00099-.0533.00112-.10654.00059-.15985-.00004-.01951.00023-.03903.00084-.05853.00331-.08788.00331-.08788-.02263-.17041-.0457-.04549-.10377-.07078-.16217-.09617-.04929-.02328-.08807-.06017-.12768-.09706-.00527-.00482-.01053-.00963-.01595-.0146-.20492-.18904-.34915-.45334-.36206-.73609-.00897-.3313.07504-.62151.30347-.868539.21833-.22977.50322-.346447.8185-.355413.277.007876.5218.096764.7343.274155.0072.005742.0144.011483.0218.017399.2052.168853.3376.445358.3647.707238.0164.32651-.0502.62069-.2706.86957-.0055.0068-.011.0136-.0167.0206-.0979.11889-.2336.2012-.3697.26925-.0032.67594-.0064 1.35189-.0097 2.04831h3.4396V2.63768c-.0191-.00637-.0382-.01275-.058-.01932-.0896-.04477-.1659-.09851-.2415-.16425-.0104-.00828-.0209-.01653-.0314-.02476-.1985-.17598-.3311-.45606-.3472-.71939-.013-.31531.0603-.60092.2723-.840392.0055-.006801.0111-.013601.0168-.020607.3735-.453557 1.1013-.476733 1.5413-.117339Zm-.8818.727318c-.0439.06423-.0617.12562-.0483.2029.0225.07147.0601.11844.1256.15459.0656.02792.1306.02238.1963-.00242.0567-.0369.101-.0875.1226-.15217.009-.07758-.0021-.13909-.0483-.2029-.0497-.05021-.1025-.07268-.1727-.08031-.0665.00665-.1313.02741-.1752.08031Zm-4.32845.02899c-.04988.06999-.06649.12616-.05798.21256.01627.05261.04562.08942.08696.1256.00598.00538.01196.01076.01812.0163.05947.03674.11856.03638.18475.02235.0644-.01995.1017-.05841.1353-.11595.0275-.05888.0304-.11866.0112-.18093-.0265-.059-.0607-.09724-.1175-.12824-.09081-.03445-.19091-.02359-.26085.04831Zm-2.6087 5.42995c-.00927.0072-.01853.01439-.02808.02181-.07833.06243-.15072.13131-.22313.20041-.00771.0073-.01542.0146-.02336.02212-.04325.04195-.08137.0872-.119.13424-.01372.01706-.02767.03392-.04197.0505-.37434.43742-.53244.99386-.53194 1.56039-.00001.01925-.00004.0385-.00006.05776-.00006.0526-.00006.1052-.00005.1578 0 .05686-.00005.11371-.0001.17056-.00008.11128-.0001.22256-.00011.33383 0 .09051-.00002.18102-.00005.27152l-.00003.07833v.01967c-.00006.18248-.0001.36498-.0001.54738v.1253c.00001.0069.00001.0139.00001.021v.0419c0 .2175-.00007.4349-.0002.6524-.00015.2446-.00023.4893-.00022.7339v.0979c0 .0968-.00005.1936-.00013.2903-.00009.1102-.00011.2204-.00005.3306.00004.0562.00004.1123-.00005.1685-.00007.0515-.00006.103.00003.1546.00001.0185-.00001.037-.00006.0555-.00183.6682.24615 1.2606.70778 1.7404.00723.0076.00723.0076.01461.0153.06537.0679.13338.1294.20761.1876.01022.0083.02042.0166.03061.0249.26201.2122.56129.3726.87761.4872.0085.0031.017.0062.02576.0094.45363.1625.91789.1952 1.39558.1947.02423 0 .04846.0001.07269.0001h.15642c.07754-.0001.15508 0 .23262 0H11.755c.2721-.0001.5443-.0001.8164 0h2.0498c.0578 0 .1155 0 .1733-.0001.0231 0 .0463 0 .0694.0001.2137.0002.4285-.0002.6406-.0279.0099-.0012.0099-.0012.02-.0025.6423-.0816 1.2573-.342 1.7371-.7802.0156-.0142.0313-.0282.0472-.042.1117-.0976.2066-.209.2954-.3274.0041-.0056.0083-.0111.0126-.0168.0629-.0845.1189-.1719.1709-.2634.0054-.0093.0054-.0093.0109-.0188.1682-.2947.2809-.6535.2803-.9948 0-.0082 0-.0165.0001-.025v-.0825c.0001-.02.0001-.04.0001-.06.0001-.0548.0002-.1096.0002-.1644 0-.0592.0001-.1184.0002-.1775.0002-.1361.0003-.2722.0004-.4083 0-.0674.0001-.1348.0001-.2021.0002-.2309.0003-.4617.0004-.6925v-.0653c0-.0363 0-.0727.0001-.1091v-.0219c0-.2338.0003-.4675.0006-.7013.0003-.2475.0005-.495.0005-.74256v-.10202c.0001-.1074.0002-.2148.0004-.3222.0002-.10821.0003-.21643.0002-.32464-.0001-.05851-.0001-.11701.0001-.17551.0021-.69255-.1672-1.2939-.6472-1.81036-.019-.02065-.0372-.04151-.055-.06314-.025-.02956-.0528-.05426-.0823-.07925-.0157-.01361-.031-.02765-.0461-.04197-.2554-.24321-.5762-.42933-.9036-.55692-.0093-.00363-.0186-.00727-.0282-.01101-.409-.15728-.8304-.22579-1.2676-.22455-.0262-.00004-.0525-.00008-.0787-.00014-.0565-.0001-.1129-.0001-.1694-.00003-.084.00011-.1679.00006-.2519-.00003-.1501-.00015-.3002-.00014-.4502-.00006-.1314.00008-.2627.00009-.3941.00006-.0087 0-.0174-.00001-.0265-.00001l-.1064-.00003c-.3324-.00008-.6648 0-.9972.00015-.2947.00014-.5894.00013-.8841-.00001-.3318-.00016-.6636-.00022-.9954-.00013-.0355.00001-.0709.00002-.1063.00003-.0131 0-.0131 0-.0264.00001-.1312.00003-.2624-.00001-.3936-.00008-.1493-.00009-.29864-.00006-.44795.00009-.08336.00009-.16672.00009-.25009-.00002-.0559-.00006-.1118-.00002-.16771.00011-.0317.00006-.0634.00007-.09511-.00002-.7349-.00192-1.45181.22587-2.03219.68012ZM3.33304 16.42c-.21327.2786-.21196.5697-.21196.9133h3.3913c.00853-.2869.00853-.2869-.03864-.5604-.00176-.0064-.00352-.0128-.00533-.0194-.0504-.1827-.1555-.3738-.32408-.4713-.05592-.0286-.10333-.0514-.16668-.0516-.01257-.0001-.01257-.0001-.02539-.0002h-.02777c-.01465-.0001-.01465-.0001-.0296-.0001-.03283-.0002-.06567-.0002-.0985-.0003-.0235-.0001-.04701-.0001-.07051-.0002-.07062-.0002-.14123-.0004-.21185-.0005-.01996-.0001-.03992-.0001-.05988-.0001-.12408-.0003-.24815-.0005-.37222-.0006-.02873 0-.05745-.0001-.08618-.0001h-.02164c-.11553-.0001-.23106-.0005-.34659-.0009-.11873-.0004-.23747-.0006-.3562-.0007-.06662 0-.13323-.0001-.19985-.0004-.06272-.0003-.12543-.0004-.18816-.0003-.02296 0-.04592 0-.06888-.0002-.2051-.0014-.34297.031-.48139.194Zm14.64426.0142c-.2002.2765-.2089.5705-.2089.9088h3.401c.0057-.2912.0057-.2912-.0447-.5749-.0025-.0085-.005-.017-.0076-.0258-.0596-.1942-.1704-.3746-.3535-.4718-.0725-.0366-.141-.04-.2206-.04-.0096 0-.0191 0-.0289-.0001-.0319 0-.0638-.0001-.0956-.0001-.0229 0-.0458-.0001-.0687-.0001-.0686-.0002-.1372-.0002-.2058-.0003-.0323 0-.0647 0-.097-.0001-.1076-.0001-.2152-.0002-.3228-.0002h-.1047c-.1123-.0001-.2245-.0002-.3368-.0005-.1154-.0002-.2308-.0003-.3462-.0003-.0647 0-.1295-.0001-.1942-.0003-.0609-.0001-.1218-.0002-.1827-.0001-.0223 0-.0447 0-.067-.0001-.0305-.0001-.0611-.0001-.0916 0-.0088 0-.0175-.0001-.0265-.0002-.1637.0013-.2954.0804-.3972.2061ZM3.12108 17.8647v1.2851h3.3913v-1.2851h-3.3913Zm14.64732.0097v1.2754h3.401v-1.2851c-.4319-.0002-.8637-.0004-1.2956-.0005h-.1835c-.1644 0-.3288-.0001-.4932-.0002-.1686-.0001-.3372-.0002-.5057-.0002-.1041 0-.2082 0-.3123-.0001-.0713-.0001-.1426-.0001-.2139-.0001h-.1236c-.0376-.0001-.0753-.0001-.1129 0-.0137 0-.0274 0-.041-.0001h-.0867c-.0225-.0014-.0225-.0014-.0326.0109ZM3.12108 19.6715v1.285h3.3913v-1.285h-3.3913Zm14.64732.0097v1.2753h3.401v-1.2753c-.0169-.017-.0406-.0109-.0636-.0109-.0177-.0001-.0177-.0001-.0358-.0001-.0132 0-.0265.0001-.0398.0001-.0139 0-.0279-.0001-.0418-.0001h-.1155c-.0415.0001-.083 0-.1244 0h-1.0644c-.1537.0001-.3073.0001-.461 0H18.0408c-.0376 0-.0751 0-.1126.0001-.0136 0-.0273 0-.0409-.0001-.0184 0-.0368 0-.0552.0001h-.0311c-.0225-.0014-.0225-.0014-.0326.0109ZM3.12108 21.4783c-.00603.3196-.00603.3196.05978.625.00291.0085.00582.017.00882.0258.05831.1641.16019.3232.31693.4078.07607.0358.13834.0442.22157.0442.00964 0 .01928 0 .02921.0001.03234 0 .06468.0001.09701.0001.02318 0 .04635.0001.06952.0001.06298.0001.12597.0002.18895.0002.03935.0001.07871.0001.11806.0002.10903.0001.21807.0002.3271.0002H4.66414c.1138.0001.2276.0002.3414.0005.11693.0002.23386.0003.3508.0003.06561 0 .13123.0001.19684.0003.06174.0001.12348.0002.18521.0001.02263 0 .04526 0 .06789.0001.03096.0001.06191.0001.09287 0 .01334.0001.01334.0001.02695.0002.1227-.0009.22819-.0498.31858-.132.09837-.0999.16304-.2166.20792-.3482.00269-.0078.00537-.0156.00814-.0236.06529-.2025.05164-.3855.05164-.6014h-3.3913Zm14.64732.0096c0 .3485.0121.6986.2706.9608.0964.0943.1884.1356.3236.1348.0099 0 .0197.0001.0299.0001.0329.0002.0657.0001.0986 0 .0236.0001.0473.0001.0709.0002.0574.0002.1149.0002.1723.0001.0467 0 .0934 0 .1401.0001H18.9352c.1268.0002.2536.0001.3803 0 .1159-.0001.2317 0 .3475.0003.1191.0002.2382.0003.3573.0002.0668 0 .1336 0 .2004.0002.0628.0001.1257.0001.1885-.0001.023 0 .046 0 .069.0001.0315.0001.063 0 .0945-.0001.0091 0 .0181.0001.0274.0002.1313-.0014.233-.0638.3229-.1551.2392-.2593.2464-.6065.2464-.9418h-3.401Z"/>
  <path d="M15.5355 8.66245c.0164.01416.0327.02844.0489.04287.0081.00694.0162.01387.0245.02102.2653.23117.4508.57172.4779.92584.0183.42672-.0828.80512-.3731 1.12852-.2431.2629-.5933.4395-.953.4576-.1431.0048-.2828.001-.4227-.0306-.0071-.0015-.0142-.0031-.0214-.0047-.2262-.0514-.4326-.1617-.6066-.3141-.0116-.0099-.0116-.0099-.0234-.0199-.0483-.0416-.091-.0853-.1312-.1347-.0075-.009-.0149-.0181-.0226-.0274-.1877-.2321-.3063-.5331-.3156-.8325-.0003-.01092-.0007-.02184-.0011-.0331-.0071-.39371.1373-.75407.4069-1.03936.0072-.00784.0145-.01567.0219-.02374.1021-.10718.2244-.18804.3549-.25646.0111-.00585.0222-.0117.0336-.01773.4696-.23861 1.0924-.17185 1.5021.15844Zm-1.5.59661c-.1379.16556-.1999.36178-.1882.57515.0246.22119.1297.40969.3036.54879.1699.1238.3753.167.5821.1443.139-.024.2592-.0808.3683-.1698.0062-.0048.0124-.0095.0188-.0144.1386-.1103.2219-.2874.2517-.45904.0009-.01801.0013-.03605.0013-.05408v-.0307c0-.01048 0-.02096-.0001-.03176.0001-.01052.0001-.02104.0001-.03188V9.67709c-.0012-.02277-.0051-.04166-.0109-.06356-.0835.00546-.1641.02256-.2456.0402-.0141.00302-.0283.00604-.0425.00905-.0369.00788-.0739.01583-.1108.02378-.0378.00814-.0756.01621-.1135.02429-.074.01581-.148.03169-.2219.04761.0238-.09699.0489-.19341.0762-.28948.0052-.01827.0103-.03653.0155-.0548.0107-.03782.0214-.07562.0321-.11342.0123-.04356.0246-.08712.0369-.13069.0033-.01146.0066-.02292.0099-.03473.0045-.01579.0045-.01579.009-.0319.004-.01391.004-.01391.008-.0281.0064-.0215.0064-.0215.0056-.04152-.2868-.08379-.582.00934-.7856.22524ZM10.5601 8.69566c.2808.24064.4819.58256.5121.95653.0019.0479.0024.09578.0024.14372v.0202c-.0001.10581-.0071.20629-.0314.30949-.0026.012-.0051.0239-.0078.0362-.0594.2495-.1943.4647-.369.6498-.009.0098-.009.0098-.0182.0198-.2377.2491-.5944.3966-.9359.408-.13205.0026-.25989-.0025-.38889-.0317-.00708-.0015-.01416-.0031-.02146-.0047-.22607-.0514-.43274-.1616-.60656-.3141-.01233-.0104-.01233-.0104-.02491-.021-.06038-.0522-.10984-.1093-.15866-.1722-.01024-.0123-.01024-.0123-.02069-.0248-.2315-.2868-.31859-.67444-.28185-1.03623.03715-.31804.18042-.60132.39915-.83273.00722-.00783.01443-.01566.02186-.02373.10211-.10718.22439-.18805.35496-.25646.01107-.00585.02214-.01171.03355-.01774.48998-.24896 1.1256-.16136 1.5413.19165Zm-1.42993.50242c-.00935.00746-.0187.01492-.02834.02261-.13966.11658-.21842.30598-.23468.4841-.00703.11356.00578.21623.0408.32421.0029.009.00581.018.00879.0273.0646.1781.21262.3284.38131.4105.20366.088.41513.1003.62258.0187.20277-.0844.34187-.2366.42697-.4372.0296-.08567.0488-.16751.0484-.25824v-.02349c-.0001-.00586-.0001-.01172-.0001-.01777-.1675-.0016-.3345.00309-.50184.00967-.02459.00093-.04917.00186-.07376.00279-.05935.00224-.1187.00454-.17805.00687.00471-.00967.00942-.01933.01428-.02929.11114-.22786.11114-.22786.22123-.45622.00609-.0127.00609-.0127.01231-.02567.01851-.03874.03672-.07761.05449-.11669.00478-.01049.00478-.01049.00965-.0212.00805-.01745.00805-.01745.00688-.03692-.02071-.00772-.04145-.01535-.0622-.02295-.01154-.00426-.02309-.00852-.03498-.01291-.25281-.08613-.53425-.02226-.73374.1518Z"/>
</svg>