<svg width="40" height="40" viewBox="0 0 40 40" fill="none" xmlns="http://www.w3.org/2000/svg">
<g clip-path="url(#clip0_88_9)">
<path d="M31.25 0H8.75C3.91751 0 0 3.91751 0 8.75V31.25C0 36.0825 3.91751 40 8.75 40H31.25C36.0825 40 40 36.0825 40 31.25V8.75C40 3.91751 36.0825 0 31.25 0Z" fill="url(#paint0_radial_88_9)"/>
<path d="M31.25 1.25H8.75C4.60786 1.25 1.25 4.60786 1.25 8.75V31.25C1.25 35.3921 4.60786 38.75 8.75 38.75H31.25C35.3921 38.75 38.75 35.3921 38.75 31.25V8.75C38.75 4.60786 35.3921 1.25 31.25 1.25Z" fill="url(#paint1_radial_88_9)"/>
<path d="M23.2476 7.79261C23.257 7.80048 23.2664 7.80834 23.2762 7.81645C23.2835 7.82226 23.2907 7.82808 23.2983 7.83407C23.5128 8.00919 23.6587 8.30313 23.6924 8.5751C23.7233 8.91083 23.6504 9.23237 23.4402 9.50053C23.3072 9.6586 23.1656 9.75926 22.9831 9.85751C22.9796 10.6036 22.9762 11.3497 22.9726 12.1184C23.3523 12.1176 23.3523 12.1176 23.7319 12.1165C24.4264 12.1152 24.4264 12.1152 24.7304 12.1629C24.7456 12.1652 24.7607 12.1674 24.7759 12.1697C25.2113 12.2367 25.6327 12.3655 26.029 12.558C26.0395 12.563 26.05 12.5681 26.0609 12.5733C26.4576 12.764 26.8139 13.0151 27.1385 13.3116C27.1486 13.3208 27.1588 13.3299 27.1692 13.3394C27.2582 13.4201 27.3454 13.5023 27.4236 13.5938C27.4441 13.6175 27.4653 13.6405 27.4865 13.6636C27.5395 13.7224 27.5882 13.7841 27.6363 13.8468C27.6462 13.8597 27.6562 13.8726 27.6662 13.8854C28.3207 14.7254 28.5959 15.7392 28.5947 16.833C28.5947 16.8624 28.5947 16.8918 28.5947 16.9212C28.5947 16.9847 28.5947 17.0482 28.5947 17.1116C28.5946 17.206 28.5946 17.3004 28.5946 17.3948C28.5946 17.5536 28.5946 17.7125 28.5945 17.8713C28.5944 18.0284 28.5944 18.1855 28.5944 18.3427C28.5944 18.3524 28.5944 18.3622 28.5944 18.3723C28.5944 18.4221 28.5944 18.4718 28.5944 18.5215C28.5944 18.8733 28.5943 19.225 28.5942 19.5767C28.5941 19.9182 28.594 20.2598 28.594 20.6013C28.594 20.6118 28.594 20.6224 28.594 20.6332C28.594 20.7391 28.5939 20.8449 28.5939 20.9508C28.5939 21.1664 28.5939 21.382 28.5938 21.5976C28.5938 21.6075 28.5938 21.6174 28.5938 21.6276C28.5937 22.2888 28.5936 22.95 28.5934 23.6111C28.603 23.6111 28.6125 23.611 28.6223 23.611C28.7132 23.6106 28.804 23.6103 28.8948 23.61C28.9415 23.6099 28.9881 23.6098 29.0348 23.6096C29.08 23.6093 29.1252 23.6092 29.1704 23.6091C29.1875 23.6091 29.2046 23.609 29.2217 23.6089C29.3737 23.6079 29.5294 23.6132 29.6767 23.6543C29.6849 23.6565 29.693 23.6588 29.7014 23.661C29.9151 23.7226 30.106 23.8368 30.2681 23.9879C30.2748 23.9942 30.2815 24.0004 30.2884 24.0068C30.388 24.1007 30.4755 24.198 30.5507 24.3124C30.5547 24.3184 30.5587 24.3245 30.5628 24.3307C30.7106 24.5563 30.8059 24.8047 30.8628 25.0674C30.8658 25.0814 30.8658 25.0814 30.869 25.0956C30.9041 25.2699 30.9097 25.4462 30.9093 25.6233C30.9094 25.645 30.9094 25.6666 30.9095 25.6882C30.9096 25.7469 30.9095 25.8057 30.9095 25.8645C30.9095 25.9281 30.9096 25.9917 30.9096 26.0554C30.9098 26.1798 30.9098 26.3042 30.9098 26.4286C30.9098 26.5298 30.9098 26.6311 30.9098 26.7323C30.9098 26.7469 30.9098 26.7615 30.9098 26.776C30.9098 26.798 30.9099 26.82 30.9099 26.842C30.91 27.0463 30.91 27.2505 30.91 27.4547C30.91 27.4624 30.9099 27.4701 30.9099 27.478C30.9099 27.517 30.9099 27.5559 30.9099 27.5948C30.9099 27.6026 30.9099 27.6103 30.9099 27.6183C30.9099 27.6339 30.9099 27.6495 30.9099 27.6652C30.9099 27.9083 30.9099 28.1515 30.9101 28.3947C30.9103 28.6685 30.9105 28.9423 30.9104 29.2161C30.9104 29.2453 30.9104 29.2746 30.9104 29.3039C30.9104 29.3147 30.9104 29.3147 30.9104 29.3257C30.9104 29.4339 30.9105 29.5421 30.9106 29.6503C30.9107 29.7736 30.9107 29.8968 30.9106 30.02C30.9105 30.0828 30.9105 30.1456 30.9106 30.2083C30.9117 30.7575 30.8673 31.2907 30.5403 31.7545C30.5327 31.7652 30.5252 31.7759 30.5175 31.7869C30.4606 31.8651 30.3975 31.9358 30.3309 32.0057C30.3239 32.0132 30.317 32.0207 30.3098 32.0285C30.0882 32.2608 29.7471 32.4294 29.4247 32.4375C29.4044 32.4376 29.384 32.4377 29.3637 32.4376C29.3467 32.4377 29.3467 32.4377 29.3294 32.4377C29.2918 32.4379 29.2542 32.4379 29.2166 32.4378C29.1895 32.4379 29.1624 32.438 29.1353 32.4381C29.0695 32.4382 29.0037 32.4383 28.9379 32.4383C28.8843 32.4383 28.8308 32.4384 28.7772 32.4384C28.6249 32.4386 28.4727 32.4387 28.3204 32.4387C28.3122 32.4387 28.304 32.4387 28.2956 32.4387C28.2874 32.4387 28.2792 32.4387 28.2707 32.4387C28.138 32.4387 28.0053 32.4389 27.8726 32.4392C27.7359 32.4395 27.5992 32.4396 27.4625 32.4396C27.3859 32.4396 27.3094 32.4396 27.2328 32.4399C27.1607 32.4401 27.0886 32.4401 27.0165 32.4399C26.9902 32.4399 26.9639 32.4399 26.9376 32.4401C26.5037 32.442 26.1507 32.3 25.8406 31.9952C25.4301 31.5858 25.2744 31.0068 25.2728 30.4414C25.2728 30.4061 25.2729 30.3708 25.273 30.3355C25.273 30.3097 25.273 30.2839 25.273 30.2581C25.273 30.2031 25.273 30.148 25.2732 30.093C25.2733 30.0135 25.2734 29.9339 25.2734 29.8544C25.2735 29.7252 25.2736 29.5961 25.2738 29.4669C25.274 29.3417 25.2741 29.2164 25.2742 29.0911C25.2742 29.0834 25.2742 29.0756 25.2742 29.0676C25.2743 29.0287 25.2743 28.9898 25.2743 28.9509C25.2745 28.6294 25.2749 28.3079 25.2754 27.9863C25.2626 27.9899 25.2498 27.9935 25.2366 27.9972C25.2196 28.002 25.2026 28.0068 25.1855 28.0115C25.1771 28.0139 25.1687 28.0163 25.1601 28.0187C25.0918 28.0378 25.0233 28.0533 24.9535 28.0661C24.942 28.0683 24.9305 28.0705 24.9186 28.0727C24.6175 28.1279 24.3185 28.1466 24.0128 28.146C23.9701 28.146 23.9275 28.146 23.8849 28.1461C23.8104 28.1462 23.7359 28.1462 23.6614 28.1461C23.5507 28.146 23.4399 28.1461 23.3292 28.1461C23.1313 28.1463 22.9334 28.1462 22.7355 28.1462C22.5623 28.1461 22.3891 28.1461 22.2159 28.1461C22.1987 28.1461 22.1987 28.1461 22.1811 28.1461C22.1343 28.1462 22.0876 28.1462 22.0409 28.1462C21.603 28.1462 21.165 28.1462 20.7271 28.1461C20.3385 28.146 19.9499 28.146 19.5613 28.1461C19.1241 28.1462 18.687 28.1462 18.2499 28.1462C18.2032 28.1462 18.1566 28.1461 18.1099 28.1461C18.0985 28.1461 18.087 28.1461 18.0751 28.1461C17.9021 28.1461 17.7291 28.1461 17.5561 28.1462C17.3592 28.1463 17.1624 28.1462 16.9655 28.1461C16.8555 28.1461 16.7455 28.1461 16.6355 28.1461C16.5618 28.1462 16.4882 28.1462 16.4145 28.1461C16.3727 28.146 16.3308 28.146 16.289 28.1461C16.0435 28.1465 15.8009 28.1371 15.5581 28.0989C15.551 28.0978 15.5439 28.0967 15.5366 28.0955C15.3651 28.069 15.195 28.0343 15.0282 27.9863C15.0282 28.0001 15.0282 28.014 15.0283 28.0282C15.029 28.357 15.0295 28.6858 15.0298 29.0147C15.0298 29.0552 15.0299 29.0958 15.0299 29.1364C15.0299 29.1445 15.0299 29.1526 15.0299 29.1609C15.0301 29.2912 15.0303 29.4216 15.0306 29.5519C15.0309 29.6859 15.0311 29.8199 15.0311 29.9539C15.0312 30.0364 15.0313 30.119 15.0316 30.2015C15.0318 30.265 15.0318 30.3286 15.0317 30.3921C15.0317 30.418 15.0318 30.4439 15.0319 30.4697C15.0328 30.6733 15.0179 30.8714 14.9687 31.0695C14.9647 31.0858 14.9647 31.0858 14.9606 31.1024C14.8732 31.4433 14.7016 31.7388 14.463 31.9952C14.4564 32.0023 14.4499 32.0094 14.4432 32.0167C14.1981 32.2732 13.8438 32.425 13.4913 32.4377C13.4232 32.4392 13.355 32.4391 13.2869 32.4389C13.2609 32.4389 13.2349 32.439 13.2089 32.439C13.1462 32.4392 13.0835 32.4391 13.0207 32.4391C12.9697 32.439 12.9186 32.439 12.8675 32.439C12.8602 32.439 12.8529 32.439 12.8454 32.439C12.8305 32.439 12.8156 32.439 12.8007 32.4391C12.6618 32.4391 12.5229 32.439 12.384 32.4389C12.2653 32.4387 12.1466 32.4388 12.0279 32.4389C11.8894 32.4391 11.751 32.4391 11.6125 32.439C11.5977 32.439 11.5829 32.439 11.5681 32.439C11.5608 32.439 11.5535 32.439 11.546 32.439C11.4951 32.439 11.4442 32.439 11.3933 32.4391C11.3246 32.4392 11.2558 32.4391 11.1871 32.4389C11.162 32.4389 11.137 32.4389 11.1119 32.439C10.6651 32.4401 10.2945 32.3129 9.97263 31.9952C9.96384 31.9867 9.96384 31.9867 9.95487 31.9781C9.60854 31.641 9.41348 31.1086 9.405 30.6311C9.40456 30.5825 9.40459 30.534 9.40468 30.4854C9.40465 30.4633 9.40461 30.4411 9.40456 30.419C9.40446 30.3586 9.40448 30.2983 9.40452 30.2379C9.40455 30.1726 9.40445 30.1073 9.40438 30.042C9.40424 29.9143 9.40422 29.7866 9.40425 29.6588C9.40427 29.5549 9.40425 29.451 9.40421 29.3471C9.4042 29.3322 9.40419 29.3172 9.40419 29.3023C9.40418 29.2797 9.40417 29.2572 9.40416 29.2346C9.40407 29.0251 9.40402 28.8156 9.40407 28.6062C9.40407 28.5983 9.40407 28.5904 9.40407 28.5823C9.40408 28.5423 9.40409 28.5023 9.4041 28.4623C9.4041 28.4544 9.4041 28.4465 9.4041 28.4383C9.40411 28.4222 9.40411 28.4062 9.40411 28.3901C9.40417 28.1405 9.40409 27.8909 9.40389 27.6413C9.40368 27.3604 9.40357 27.0795 9.40361 26.7986C9.40361 26.7686 9.40362 26.7386 9.40362 26.7086C9.40362 26.7012 9.40362 26.6938 9.40362 26.6862C9.40363 26.5751 9.40357 26.464 9.40345 26.3529C9.40333 26.2264 9.40331 26.1 9.40344 25.9735C9.4035 25.909 9.40351 25.8446 9.40339 25.7801C9.40327 25.7209 9.40331 25.6618 9.40345 25.6026C9.40348 25.5814 9.40346 25.5601 9.40337 25.5389C9.40267 25.3477 9.41787 25.156 9.46694 24.9705C9.4696 24.9603 9.47225 24.95 9.47498 24.9394C9.52008 24.7713 9.58612 24.6118 9.66909 24.459C9.67498 24.448 9.68088 24.4371 9.68696 24.4259C9.76299 24.2907 9.85471 24.1725 9.96216 24.0612C9.97119 24.0515 9.98022 24.0418 9.98952 24.0319C10.2107 23.8006 10.5386 23.6249 10.8623 23.6102C10.8853 23.6099 10.9083 23.6098 10.9314 23.6099C10.9401 23.6099 10.9488 23.6099 10.9577 23.6099C10.9862 23.6099 11.0147 23.61 11.0432 23.6101C11.063 23.6101 11.0829 23.6101 11.1027 23.6102C11.1547 23.6102 11.2068 23.6103 11.2589 23.6104C11.312 23.6105 11.3652 23.6106 11.4184 23.6106C11.5226 23.6107 11.6269 23.6109 11.7311 23.6111C11.7311 23.6018 11.7311 23.6018 11.7311 23.5923C11.7307 22.9159 11.7304 22.2394 11.7302 21.563C11.7302 21.5529 11.7302 21.5428 11.7302 21.5324C11.7301 21.3125 11.7301 21.0927 11.73 20.8728C11.73 20.765 11.73 20.6572 11.7299 20.5494C11.7299 20.5386 11.7299 20.5279 11.7299 20.5168C11.7298 20.1695 11.7297 19.8221 11.7295 19.4747C11.7293 19.1176 11.7292 18.7604 11.7291 18.4033C11.7291 18.3527 11.7291 18.3022 11.7291 18.2517C11.7291 18.2368 11.7291 18.2368 11.7291 18.2216C11.7291 18.0619 11.729 17.9023 11.7288 17.7427C11.7287 17.5819 11.7287 17.4212 11.7287 17.2605C11.7287 17.1651 11.7287 17.0698 11.7286 16.9744C11.7285 16.9106 11.7285 16.8467 11.7285 16.7828C11.7286 16.7465 11.7286 16.7102 11.7285 16.6739C11.728 16.444 11.7378 16.2151 11.7703 15.9872C11.773 15.9685 11.773 15.9685 11.7757 15.9495C11.84 15.5136 11.9719 15.0911 12.1602 14.6933C12.165 14.683 12.1699 14.6728 12.1748 14.6623C12.3261 14.3443 12.5184 14.0409 12.7464 13.7722C12.7554 13.7614 12.7644 13.7506 12.7733 13.7397C12.9273 13.5549 13.0931 13.3641 13.2846 13.2179C13.3093 13.1983 13.3325 13.1779 13.3559 13.1567C13.4024 13.1152 13.4507 13.0768 13.5007 13.0395C13.5096 13.0328 13.5185 13.0262 13.5277 13.0193C13.7061 12.8876 13.8915 12.7687 14.0862 12.6627C14.0953 12.6576 14.1044 12.6525 14.1139 12.6473C14.6205 12.3675 15.1854 12.2035 15.7596 12.1419C15.7765 12.1401 15.7765 12.1401 15.7938 12.1383C16.0031 12.1178 16.2134 12.1169 16.4235 12.1174C16.449 12.1174 16.4745 12.1174 16.4999 12.1174C16.5661 12.1174 16.6323 12.1175 16.6984 12.1177C16.7663 12.1178 16.8341 12.1178 16.902 12.1179C17.0345 12.118 17.167 12.1182 17.2995 12.1184C17.3028 11.8324 17.3049 11.5465 17.3057 11.2605C17.3061 11.1277 17.3069 10.9949 17.3085 10.8621C17.31 10.7464 17.3107 10.6306 17.3106 10.5148C17.3106 10.4536 17.3109 10.3923 17.312 10.331C17.3131 10.2733 17.3132 10.2156 17.3127 10.1579C17.3126 10.1367 17.3129 10.1156 17.3136 10.0945C17.3172 9.99925 17.3172 9.99925 17.2891 9.90985C17.2395 9.86056 17.1766 9.83316 17.1134 9.80566C17.06 9.78044 17.018 9.74048 16.975 9.70051C16.9693 9.69529 16.9636 9.69007 16.9578 9.6847C16.7358 9.4799 16.5795 9.19357 16.5655 8.88727C16.5558 8.52836 16.6468 8.21396 16.8943 7.94635C17.1308 7.69743 17.4395 7.57103 17.781 7.56132C18.0811 7.56985 18.3463 7.66614 18.5765 7.85832C18.5843 7.86454 18.5921 7.87076 18.6002 7.87716C18.8224 8.06009 18.9658 8.35964 18.9952 8.64334C19.013 8.99705 18.9408 9.31576 18.7021 9.58537C18.6961 9.59274 18.6901 9.6001 18.6839 9.60769C18.5779 9.73649 18.4309 9.82566 18.2834 9.89938C18.28 10.6316 18.2765 11.3639 18.273 12.1184C19.5026 12.1184 20.7323 12.1184 21.9992 12.1184C21.9992 11.3723 21.9992 10.6262 21.9992 9.85751C21.9785 9.8506 21.9578 9.84369 21.9364 9.83658C21.8393 9.78807 21.7567 9.72985 21.6747 9.65864C21.6634 9.64967 21.6521 9.64073 21.6407 9.63182C21.4256 9.44117 21.282 9.13776 21.2646 8.85248C21.2505 8.51089 21.3299 8.20148 21.5596 7.94205C21.5656 7.93469 21.5716 7.92732 21.5777 7.91973C21.9824 7.42838 22.7708 7.40327 23.2476 7.79261ZM22.2923 8.58054C22.2447 8.65012 22.2254 8.71662 22.2399 8.80035C22.2643 8.87777 22.3051 8.92866 22.376 8.96782C22.447 8.99807 22.5174 8.99207 22.5886 8.9652C22.65 8.92522 22.6981 8.87041 22.7214 8.80035C22.7312 8.7163 22.7192 8.64966 22.6691 8.58054C22.6153 8.52614 22.5581 8.50181 22.482 8.49353C22.4099 8.50074 22.3398 8.52323 22.2923 8.58054ZM17.6031 8.61194C17.549 8.68777 17.531 8.74861 17.5403 8.84221C17.5579 8.89921 17.5897 8.93909 17.6345 8.97828C17.6409 8.98411 17.6474 8.98994 17.6541 8.99595C17.7185 9.03574 17.7825 9.03535 17.8543 9.02015C17.9241 8.99854 17.9644 8.95688 18.0008 8.89455C18.0307 8.83075 18.0337 8.76599 18.013 8.69854C17.9843 8.63462 17.9472 8.5932 17.8857 8.5596C17.7873 8.52228 17.6788 8.53406 17.6031 8.61194ZM14.777 14.4944C14.7669 14.5022 14.7569 14.51 14.7466 14.518C14.6617 14.5857 14.5833 14.6603 14.5048 14.7351C14.4965 14.743 14.4881 14.7509 14.4795 14.7591C14.4327 14.8045 14.3914 14.8536 14.3506 14.9045C14.3358 14.923 14.3206 14.9413 14.3051 14.9592C13.8996 15.4331 13.7283 16.0359 13.7289 16.6496C13.7289 16.6705 13.7288 16.6914 13.7288 16.7122C13.7287 16.7692 13.7287 16.8262 13.7288 16.8832C13.7288 16.9448 13.7287 17.0064 13.7287 17.0679C13.7286 17.1885 13.7285 17.309 13.7285 17.4296C13.7285 17.5276 13.7285 17.6257 13.7285 17.7237C13.7285 17.752 13.7285 17.7803 13.7284 17.8086C13.7284 17.8156 13.7284 17.8227 13.7284 17.8299C13.7284 18.0276 13.7283 18.2253 13.7283 18.4229C13.7283 18.4304 13.7283 18.4378 13.7283 18.4455C13.7283 18.4832 13.7283 18.5209 13.7283 18.5587C13.7283 18.5662 13.7283 18.5737 13.7283 18.5814C13.7283 18.5965 13.7283 18.6117 13.7283 18.6268C13.7283 18.8624 13.7283 19.0979 13.7281 19.3335C13.728 19.5986 13.7279 19.8636 13.7279 20.1286C13.7279 20.1569 13.7279 20.1853 13.7279 20.2136C13.7279 20.2205 13.7279 20.2275 13.7279 20.2347C13.7279 20.3395 13.7278 20.4444 13.7277 20.5492C13.7277 20.6686 13.7276 20.7879 13.7277 20.9073C13.7277 20.9682 13.7277 21.029 13.7276 21.0898C13.7276 21.1456 13.7276 21.2015 13.7277 21.2573C13.7277 21.2774 13.7277 21.2974 13.7276 21.3175C13.7256 22.0414 13.9943 22.6831 14.4944 23.2029C14.5022 23.2111 14.5022 23.2111 14.5102 23.2194C14.581 23.293 14.6547 23.3596 14.7351 23.4227C14.7462 23.4317 14.7572 23.4407 14.7683 23.4497C15.0521 23.6795 15.3763 23.8534 15.719 23.9775C15.7282 23.9808 15.7374 23.9842 15.7469 23.9876C16.2384 24.1637 16.7413 24.1991 17.2588 24.1986C17.285 24.1986 17.3113 24.1986 17.3375 24.1987C17.394 24.1987 17.4505 24.1987 17.507 24.1987C17.591 24.1986 17.675 24.1987 17.759 24.1987C17.9091 24.1987 18.0593 24.1987 18.2094 24.1987C18.3408 24.1987 18.4722 24.1987 18.6036 24.1987C18.6123 24.1987 18.621 24.1987 18.6301 24.1987C18.6656 24.1987 18.7011 24.1987 18.7366 24.1987C19.0692 24.1987 19.4017 24.1987 19.7342 24.1986C20.029 24.1986 20.3239 24.1986 20.6187 24.1986C20.9507 24.1987 21.2826 24.1987 21.6146 24.1987C21.65 24.1987 21.6855 24.1987 21.7209 24.1987C21.734 24.1987 21.734 24.1987 21.7474 24.1987C21.8786 24.1987 22.0099 24.1987 22.1411 24.1987C22.2905 24.1987 22.4398 24.1987 22.5892 24.1987C22.6726 24.1986 22.756 24.1986 22.8393 24.1987C22.9019 24.1987 22.9645 24.1987 23.027 24.1986C23.0521 24.1986 23.0772 24.1986 23.1023 24.1987C23.3337 24.1989 23.5664 24.1984 23.7963 24.1685C23.807 24.1671 23.807 24.1671 23.8179 24.1658C24.5137 24.0773 25.1799 23.7953 25.6997 23.3205C25.7166 23.3052 25.7336 23.29 25.7508 23.275C25.8718 23.1693 25.9747 23.0486 26.0709 22.9203C26.0754 22.9143 26.0799 22.9083 26.0845 22.9021C26.1526 22.8107 26.2134 22.7159 26.2697 22.6168C26.2755 22.6067 26.2755 22.6067 26.2815 22.5964C26.4637 22.2772 26.5859 21.8885 26.5851 21.5187C26.5852 21.5098 26.5852 21.5009 26.5852 21.4917C26.5853 21.4619 26.5853 21.4321 26.5853 21.4022C26.5853 21.3806 26.5854 21.359 26.5854 21.3373C26.5855 21.2779 26.5855 21.2185 26.5856 21.1592C26.5856 21.0951 26.5857 21.031 26.5858 20.9669C26.586 20.8194 26.5861 20.672 26.5862 20.5245C26.5862 20.4516 26.5863 20.3786 26.5863 20.3056C26.5865 20.0555 26.5867 19.8055 26.5868 19.5554C26.5868 19.5397 26.5868 19.524 26.5868 19.5083C26.5868 19.4966 26.5868 19.4966 26.5868 19.4847C26.5868 19.4453 26.5868 19.4059 26.5868 19.3665C26.5868 19.3547 26.5868 19.3547 26.5868 19.3428C26.5869 19.0895 26.5872 18.8363 26.5875 18.583C26.5879 18.3149 26.5881 18.0467 26.5881 17.7786C26.5881 17.7491 26.5881 17.7196 26.5881 17.6901C26.5881 17.6828 26.5881 17.6755 26.5881 17.6681C26.5881 17.5517 26.5883 17.4354 26.5885 17.319C26.5887 17.2018 26.5888 17.0845 26.5887 16.9673C26.5887 16.9039 26.5887 16.8406 26.5889 16.7772C26.5912 16.0269 26.4077 15.3754 25.8877 14.816C25.8671 14.7936 25.8474 14.771 25.8282 14.7476C25.801 14.7155 25.7709 14.6888 25.7389 14.6617C25.7219 14.647 25.7053 14.6317 25.6891 14.6162C25.4123 14.3528 25.0649 14.1511 24.7102 14.0129C24.7001 14.009 24.69 14.005 24.6795 14.001C24.2365 13.8306 23.78 13.7564 23.3063 13.7577C23.2779 13.7577 23.2495 13.7576 23.2211 13.7576C23.1599 13.7574 23.0987 13.7575 23.0376 13.7575C22.9466 13.7577 22.8556 13.7576 22.7646 13.7575C22.6021 13.7573 22.4395 13.7573 22.2769 13.7574C22.1346 13.7575 21.9923 13.7575 21.85 13.7575C21.8406 13.7575 21.8311 13.7575 21.8213 13.7575C21.7829 13.7575 21.7444 13.7575 21.706 13.7575C21.3459 13.7574 20.9858 13.7574 20.6258 13.7576C20.3065 13.7578 19.9872 13.7578 19.6679 13.7576C19.3085 13.7574 18.949 13.7574 18.5896 13.7575C18.5512 13.7575 18.5128 13.7575 18.4744 13.7575C18.4603 13.7575 18.4603 13.7575 18.4458 13.7575C18.3037 13.7575 18.1616 13.7575 18.0194 13.7574C17.8577 13.7573 17.6959 13.7574 17.5342 13.7575C17.4439 13.7576 17.3536 13.7576 17.2632 13.7575C17.2027 13.7574 17.1421 13.7575 17.0816 13.7576C17.0472 13.7577 17.0129 13.7577 16.9785 13.7576C16.1824 13.7555 15.4057 14.0023 14.777 14.4944ZM10.6105 24.7883C10.3794 25.0902 10.3808 25.4055 10.3808 25.7778C11.5932 25.7778 12.8056 25.7778 14.0548 25.7778C14.064 25.4669 14.064 25.4669 14.0129 25.1707C14.011 25.1638 14.0091 25.1568 14.0071 25.1497C13.9525 24.9517 13.8387 24.7447 13.656 24.6391C13.5955 24.6081 13.5441 24.5833 13.4755 24.5831C13.4618 24.583 13.4618 24.583 13.448 24.583C13.4331 24.583 13.4331 24.583 13.4179 24.583C13.402 24.5829 13.402 24.5829 13.3858 24.5828C13.3502 24.5827 13.3147 24.5826 13.2791 24.5825C13.2536 24.5825 13.2282 24.5824 13.2027 24.5823C13.1262 24.582 13.0497 24.5819 12.9732 24.5817C12.9516 24.5817 12.93 24.5817 12.9083 24.5816C12.7739 24.5814 12.6395 24.5811 12.5051 24.581C12.474 24.581 12.4429 24.5809 12.4117 24.5809C12.404 24.5809 12.3963 24.5809 12.3883 24.5809C12.2631 24.5807 12.138 24.5804 12.0128 24.58C11.8842 24.5795 11.7556 24.5793 11.6269 24.5792C11.5548 24.5792 11.4826 24.5791 11.4104 24.5787C11.3425 24.5784 11.2745 24.5783 11.2066 24.5785C11.1817 24.5785 11.1569 24.5784 11.132 24.5782C10.9098 24.5766 10.7604 24.6118 10.6105 24.7883ZM26.4751 24.8038C26.2582 25.1033 26.2488 25.4218 26.2488 25.7883C27.4646 25.7883 28.6805 25.7883 29.9332 25.7883C29.9394 25.4728 29.9394 25.4728 29.8848 25.1655C29.8821 25.1563 29.8794 25.147 29.8766 25.1375C29.8119 24.9272 29.6919 24.7317 29.4936 24.6264C29.415 24.5867 29.3409 24.583 29.2546 24.5831C29.2442 24.5831 29.2339 24.583 29.2233 24.583C29.1888 24.5829 29.1542 24.5829 29.1197 24.5829C29.0949 24.5828 29.0701 24.5828 29.0453 24.5827C28.971 24.5826 28.8967 24.5825 28.8224 24.5825C28.7873 24.5824 28.7523 24.5824 28.7172 24.5823C28.6007 24.5822 28.4841 24.5821 28.3675 24.5821C28.3601 24.5821 28.3526 24.5821 28.3449 24.5821C28.3374 24.5821 28.33 24.5821 28.3223 24.5821C28.3071 24.5821 28.292 24.5821 28.2769 24.582C28.2694 24.582 28.2618 24.582 28.2541 24.582C28.1325 24.582 28.0109 24.5818 27.8893 24.5816C27.7642 24.5813 27.6392 24.5812 27.5142 24.5812C27.4441 24.5812 27.374 24.5811 27.3038 24.5809C27.2378 24.5808 27.1719 24.5807 27.1059 24.5808C27.0817 24.5808 27.0575 24.5808 27.0334 24.5807C27.0003 24.5805 26.9672 24.5806 26.9341 24.5807C26.9246 24.5806 26.9151 24.5805 26.9053 24.5805C26.728 24.5818 26.5854 24.6676 26.4751 24.8038ZM10.3808 26.3535C10.3808 26.8129 10.3808 27.2723 10.3808 27.7456C11.5932 27.7456 12.8056 27.7456 14.0548 27.7456C14.0548 27.2862 14.0548 26.8268 14.0548 26.3535C12.8424 26.3535 11.63 26.3535 10.3808 26.3535ZM26.2488 26.364C26.2488 26.8199 26.2488 27.2758 26.2488 27.7456C27.4646 27.7456 28.6805 27.7456 29.9332 27.7456C29.9332 27.2862 29.9332 26.8268 29.9332 26.3535C29.4653 26.3533 28.9975 26.3531 28.5296 26.353C28.4744 26.3529 28.4193 26.3529 28.3641 26.3529C28.3476 26.3529 28.3476 26.3529 28.3308 26.3529C28.1527 26.3529 27.9746 26.3528 27.7965 26.3527C27.6139 26.3526 27.4313 26.3525 27.2487 26.3525C27.1359 26.3525 27.0231 26.3524 26.9103 26.3524C26.8331 26.3523 26.7559 26.3523 26.6787 26.3523C26.634 26.3523 26.5894 26.3523 26.5448 26.3522C26.504 26.3522 26.4632 26.3522 26.4224 26.3522C26.4076 26.3522 26.3928 26.3522 26.378 26.3522C26.358 26.3521 26.3379 26.3522 26.3179 26.3522C26.3068 26.3522 26.2956 26.3522 26.2841 26.3522C26.2597 26.3507 26.2597 26.3507 26.2488 26.364ZM10.3808 28.3108C10.3808 28.7702 10.3808 29.2296 10.3808 29.7029C11.5932 29.7029 12.8056 29.7029 14.0548 29.7029C14.0548 29.2435 14.0548 28.7841 14.0548 28.3108C12.8424 28.3108 11.63 28.3108 10.3808 28.3108ZM26.2488 28.3213C26.2488 28.7772 26.2488 29.2332 26.2488 29.7029C27.4646 29.7029 28.6805 29.7029 29.9332 29.7029C29.9332 29.247 29.9332 28.791 29.9332 28.3213C29.9148 28.3029 29.8892 28.3095 29.8642 28.3095C29.8451 28.3095 29.8451 28.3095 29.8255 28.3094C29.8112 28.3094 29.7968 28.3095 29.7824 28.3095C29.7673 28.3095 29.7522 28.3095 29.7371 28.3094C29.6954 28.3094 29.6537 28.3094 29.6119 28.3094C29.567 28.3095 29.5221 28.3094 29.4772 28.3094C29.3891 28.3094 29.301 28.3094 29.2129 28.3094C29.1414 28.3094 29.0698 28.3094 28.9983 28.3094C28.983 28.3094 28.983 28.3094 28.9675 28.3094C28.9468 28.3094 28.9262 28.3094 28.9055 28.3094C28.7117 28.3094 28.5179 28.3094 28.3241 28.3095C28.1576 28.3095 27.9912 28.3095 27.8247 28.3094C27.6316 28.3094 27.4385 28.3094 27.2454 28.3094C27.2248 28.3094 27.2043 28.3094 27.1837 28.3094C27.1736 28.3094 27.1635 28.3094 27.153 28.3094C27.0815 28.3094 27.01 28.3094 26.9385 28.3094C26.8514 28.3094 26.7643 28.3094 26.6773 28.3094C26.6328 28.3094 26.5883 28.3095 26.5438 28.3094C26.5032 28.3094 26.4625 28.3094 26.4219 28.3095C26.4071 28.3095 26.3923 28.3095 26.3776 28.3094C26.3576 28.3094 26.3377 28.3095 26.3177 28.3095C26.3011 28.3095 26.3011 28.3095 26.284 28.3095C26.2597 28.308 26.2597 28.308 26.2488 28.3213ZM10.3808 30.2681C10.3743 30.6144 10.3743 30.6144 10.4456 30.9452C10.4488 30.9544 10.4519 30.9637 10.4552 30.9732C10.5183 31.151 10.6287 31.3233 10.7985 31.415C10.8809 31.4538 10.9484 31.4629 11.0385 31.4628C11.049 31.4629 11.0594 31.4629 11.0702 31.4629C11.1052 31.463 11.1402 31.463 11.1753 31.4631C11.2004 31.4631 11.2255 31.4632 11.2506 31.4632C11.3188 31.4634 11.3871 31.4634 11.4553 31.4635C11.4979 31.4635 11.5405 31.4635 11.5832 31.4636C11.7013 31.4637 11.8194 31.4638 11.9375 31.4639C11.9451 31.4639 11.9527 31.4639 11.9604 31.4639C11.9718 31.4639 11.9718 31.4639 11.9834 31.4639C11.9987 31.4639 12.0141 31.4639 12.0294 31.4639C12.037 31.4639 12.0447 31.4639 12.0525 31.4639C12.1758 31.4639 12.2991 31.4641 12.4223 31.4644C12.549 31.4646 12.6757 31.4647 12.8024 31.4648C12.8735 31.4648 12.9445 31.4648 13.0156 31.465C13.0825 31.4652 13.1494 31.4652 13.2163 31.4651C13.2408 31.4651 13.2653 31.4652 13.2898 31.4653C13.3233 31.4654 13.3569 31.4653 13.3904 31.4652C13.4049 31.4653 13.4049 31.4653 13.4196 31.4655C13.5525 31.4645 13.6668 31.4115 13.7647 31.3225C13.8713 31.2142 13.9414 31.0878 13.99 30.9452C13.9929 30.9368 13.9958 30.9284 13.9988 30.9197C14.0695 30.7003 14.0548 30.5021 14.0548 30.2681C12.8424 30.2681 11.63 30.2681 10.3808 30.2681ZM26.2488 30.2786C26.2488 30.6561 26.2618 31.0354 26.5419 31.3194C26.6463 31.4216 26.7461 31.4664 26.8925 31.4654C26.9032 31.4655 26.9139 31.4655 26.9249 31.4656C26.9605 31.4658 26.9961 31.4657 27.0317 31.4656C27.0573 31.4657 27.0829 31.4657 27.1085 31.4658C27.1707 31.466 27.2329 31.466 27.2952 31.466C27.3458 31.4659 27.3964 31.4659 27.447 31.466C27.4542 31.466 27.4614 31.466 27.4688 31.466C27.4835 31.466 27.4982 31.466 27.5128 31.4661C27.6502 31.4662 27.7875 31.4661 27.9249 31.466C28.0503 31.4659 28.1758 31.4661 28.3013 31.4663C28.4303 31.4666 28.5593 31.4667 28.6884 31.4666C28.7607 31.4666 28.8331 31.4666 28.9055 31.4668C28.9735 31.4669 29.0416 31.4669 29.1096 31.4667C29.1346 31.4666 29.1595 31.4667 29.1844 31.4668C29.2186 31.4669 29.2527 31.4668 29.2868 31.4666C29.2966 31.4667 29.3064 31.4668 29.3164 31.4669C29.4586 31.4654 29.5689 31.3978 29.6663 31.2989C29.9254 31.0179 29.9332 30.6418 29.9332 30.2786C28.7173 30.2786 27.5015 30.2786 26.2488 30.2786Z" fill="white"/>
<path d="M23.8303 16.3843C23.8481 16.3996 23.8658 16.4151 23.8833 16.4307C23.8921 16.4383 23.9009 16.4458 23.9099 16.4535C24.1973 16.704 24.3983 17.0729 24.4276 17.4565C24.4474 17.9188 24.3379 18.3287 24.0234 18.6791C23.76 18.9638 23.3807 19.1552 22.991 19.1748C22.836 19.18 22.6847 19.1759 22.5331 19.1417C22.5254 19.14 22.5177 19.1383 22.5098 19.1366C22.2648 19.0809 22.0412 18.9614 21.8527 18.7963C21.8402 18.7856 21.8402 18.7856 21.8273 18.7747C21.7751 18.7297 21.7288 18.6823 21.6853 18.6288C21.6772 18.619 21.6691 18.6092 21.6608 18.5992C21.4574 18.3476 21.329 18.0216 21.3189 17.6972C21.3185 17.6854 21.3181 17.6736 21.3177 17.6614C21.31 17.2349 21.4664 16.8445 21.7585 16.5354C21.7663 16.5269 21.7742 16.5184 21.7822 16.5097C21.8928 16.3936 22.0253 16.306 22.1667 16.2319C22.1787 16.2255 22.1907 16.2192 22.2031 16.2127C22.7118 15.9542 23.3865 16.0265 23.8303 16.3843ZM22.2053 17.0306C22.0559 17.21 21.9888 17.4226 22.0015 17.6537C22.0281 17.8934 22.1419 18.0975 22.3304 18.2483C22.5145 18.3824 22.737 18.4291 22.961 18.4045C23.1116 18.3785 23.2418 18.3171 23.36 18.2206C23.3667 18.2155 23.3734 18.2103 23.3803 18.205C23.5305 18.0855 23.6207 17.8936 23.6531 17.7077C23.654 17.6882 23.6544 17.6687 23.6544 17.6491C23.6545 17.6327 23.6545 17.6327 23.6545 17.6159C23.6544 17.6045 23.6544 17.5932 23.6544 17.5815C23.6544 17.5701 23.6544 17.5587 23.6545 17.5469C23.6545 17.536 23.6545 17.525 23.6544 17.5137C23.6544 17.4988 23.6544 17.4988 23.6544 17.4835C23.6532 17.4588 23.6489 17.4384 23.6426 17.4146C23.5522 17.4206 23.4649 17.4391 23.3766 17.4582C23.3612 17.4615 23.3459 17.4647 23.3306 17.468C23.2905 17.4765 23.2505 17.4851 23.2105 17.4938C23.1695 17.5026 23.1285 17.5113 23.0876 17.5201C23.0074 17.5372 22.9272 17.5544 22.8471 17.5716C22.8729 17.4666 22.9001 17.3621 22.9297 17.258C22.9353 17.2383 22.9409 17.2185 22.9465 17.1987C22.958 17.1577 22.9696 17.1168 22.9812 17.0758C22.9946 17.0286 23.008 16.9814 23.0213 16.9342C23.0248 16.9218 23.0283 16.9094 23.032 16.8966C23.0368 16.8795 23.0368 16.8795 23.0417 16.862C23.046 16.847 23.046 16.847 23.0504 16.8316C23.0573 16.8083 23.0573 16.8083 23.0564 16.7866C22.7457 16.6958 22.426 16.7967 22.2053 17.0306Z" fill="white"/>
<path d="M18.4403 16.4203C18.7445 16.681 18.9624 17.0514 18.995 17.4565C18.9971 17.5084 18.9976 17.5603 18.9977 17.6122C18.9977 17.6195 18.9977 17.6267 18.9977 17.6341C18.9976 17.7487 18.9899 17.8576 18.9636 17.9694C18.9609 17.9824 18.9581 17.9953 18.9552 18.0086C18.8908 18.2789 18.7447 18.5121 18.5554 18.7126C18.5457 18.7232 18.5457 18.7232 18.5357 18.734C18.2783 19.0038 17.8918 19.1637 17.5218 19.1761C17.3788 19.1789 17.2403 19.1733 17.1005 19.1417C17.0929 19.14 17.0852 19.1384 17.0773 19.1366C16.8324 19.0809 16.6085 18.9615 16.4202 18.7963C16.4068 18.785 16.4068 18.785 16.3932 18.7735C16.3278 18.717 16.2742 18.6551 16.2213 18.587C16.2102 18.5737 16.2102 18.5737 16.1989 18.5602C15.9481 18.2494 15.8538 17.8295 15.8935 17.4376C15.9338 17.093 16.089 16.7861 16.326 16.5354C16.3338 16.527 16.3416 16.5185 16.3496 16.5097C16.4603 16.3936 16.5927 16.306 16.7342 16.2319C16.7462 16.2256 16.7582 16.2192 16.7705 16.2127C17.3013 15.943 17.9899 16.0379 18.4403 16.4203ZM16.8912 16.9646C16.8811 16.9727 16.8709 16.9808 16.8605 16.9891C16.7092 17.1154 16.6239 17.3206 16.6062 17.5135C16.5986 17.6365 16.6125 17.7478 16.6504 17.8647C16.6536 17.8745 16.6567 17.8843 16.66 17.8943C16.73 18.0873 16.8903 18.2501 17.073 18.339C17.2937 18.4344 17.5228 18.4477 17.7475 18.3593C17.9672 18.2679 18.1178 18.103 18.21 17.8857C18.2422 17.7928 18.2629 17.7042 18.2625 17.6059C18.2625 17.5933 18.2625 17.5933 18.2625 17.5805C18.2624 17.5741 18.2624 17.5677 18.2624 17.5612C18.0809 17.5595 17.9 17.5645 17.7187 17.5717C17.6921 17.5727 17.6655 17.5737 17.6388 17.5747C17.5745 17.5771 17.5102 17.5796 17.4459 17.5821C17.451 17.5717 17.4561 17.5612 17.4614 17.5504C17.5818 17.3036 17.5818 17.3036 17.7011 17.0562C17.7077 17.0424 17.7077 17.0424 17.7144 17.0284C17.7345 16.9864 17.7542 16.9443 17.7734 16.9019C17.7786 16.8906 17.7786 16.8906 17.7839 16.879C17.7926 16.8601 17.7926 16.8601 17.7913 16.839C17.7689 16.8306 17.7464 16.8224 17.724 16.8141C17.7115 16.8095 17.6989 16.8049 17.6861 16.8001C17.4122 16.7068 17.1073 16.776 16.8912 16.9646Z" fill="white"/>
</g>
<defs>
<radialGradient id="paint0_radial_88_9" cx="0" cy="0" r="1" gradientUnits="userSpaceOnUse" gradientTransform="translate(20) rotate(90) scale(40)">
<stop stop-color="#A5B4FC"/>
<stop offset="0.5" stop-color="#3730A3"/>
</radialGradient>
<radialGradient id="paint1_radial_88_9" cx="0" cy="0" r="1" gradientUnits="userSpaceOnUse" gradientTransform="translate(20 38.75) rotate(-90) scale(50.75)">
<stop stop-color="#312E81"/>
<stop offset="0.5"/>
</radialGradient>
<clipPath id="clip0_88_9">
<rect width="40" height="40" fill="white"/>
</clipPath>
</defs>
</svg>
